<?xml version="1.0" encoding="UTF-8" standalone="no"?>
<svg
   xmlns:dc="http://purl.org/dc/elements/1.1/"
   xmlns:cc="http://creativecommons.org/ns#"
   xmlns:rdf="http://www.w3.org/1999/02/22-rdf-syntax-ns#"
   xmlns:svg="http://www.w3.org/2000/svg"
   xmlns="http://www.w3.org/2000/svg"
   xmlns:xlink="http://www.w3.org/1999/xlink"
   id="svg8"
   version="1.1"
   viewBox="0 0 86.098852 24.241508"
   height="91.621445"
   width="325.41299">
  <defs
     id="defs2" />
  <metadata
     id="metadata5">
    <rdf:RDF>
      <cc:Work
         rdf:about="">
        <dc:format>image/svg+xml</dc:format>
        <dc:type
           rdf:resource="http://purl.org/dc/dcmitype/StillImage" />
        <dc:title></dc:title>
      </cc:Work>
    </rdf:RDF>
  </metadata>
  <g
     transform="translate(-1.1084122,-271.65006)"
     id="layer1">
    <ellipse
       ry="11.723879"
       rx="11.72388"
       cy="283.77081"
       cx="13.229167"
       id="path1368"
       style="fill:#ffd100;fill-opacity:1;stroke:#f4bc00;stroke-width:0.79374999;stroke-linecap:square;stroke-linejoin:miter;stroke-miterlimit:4;stroke-dasharray:none;stroke-opacity:1" />
    <path
       id="path1380"
       d="M 14.42557,276.40749 13.209495,285.01357 9,285.48129 Z"
       style="fill:#f4bc00;fill-opacity:1;stroke:none;stroke-width:0.26458332px;stroke-linecap:butt;stroke-linejoin:miter;stroke-opacity:1" />
    <use
       height="100%"
       width="100%"
       transform="rotate(-180,13.175635,283.70373)"
       id="use1413"
       xlink:href="#path1380"
       y="0"
       x="0" />
    <g
       id="text1417"
       style="font-style:normal;font-weight:normal;font-size:10.58333302px;line-height:1.25;font-family:sans-serif;letter-spacing:0px;word-spacing:0px;fill:#f4bc00;fill-opacity:1;stroke:none;stroke-width:0.26458332"
       aria-label="Cryptocurrent">
      <path
         id="path8611"
         style="font-style:normal;font-variant:normal;font-weight:normal;font-stretch:normal;font-family:'Bunday Sans';-inkscape-font-specification:'Bunday Sans';fill:#574200;fill-opacity:1"
         d="m 31.221552,286.39833 c -0.328084,0.0635 -0.804334,0.17992 -1.312333,0.17992 -1.17475,0 -1.598084,-0.40217 -1.598084,-2.78342 0,-2.44475 0.465667,-2.83633 1.545167,-2.83633 0.41275,0 0.867833,0.0423 1.322916,0.127 l 0.15875,-0.889 c -0.275166,-0.0953 -0.931333,-0.21167 -1.587499,-0.21167 -2.084917,0 -2.57175,1.34409 -2.57175,3.81 0,3.03742 0.846666,3.75709 2.645833,3.75709 0.656166,0 1.36525,-0.17992 1.576916,-0.254 z" />
      <path
         id="path8613"
         style="font-style:normal;font-variant:normal;font-weight:normal;font-stretch:normal;font-family:'Bunday Sans';-inkscape-font-specification:'Bunday Sans';fill:#574200;fill-opacity:1"
         d="m 32.449217,287.45667 h 1.121833 v -3.77825 c 0.211667,-0.28575 0.645583,-0.5715 1.164167,-0.5715 0.1905,0 0.359833,0.0317 0.529166,0.0635 l 0.15875,-1.03717 c -0.105833,-0.0423 -0.296333,-0.0635 -0.497416,-0.0635 -0.60325,0 -1.068917,0.26458 -1.386417,0.60325 h -0.04233 l -0.0635,-0.52917 h -0.98425 z" />
      <path
         id="path8615"
         style="font-style:normal;font-variant:normal;font-weight:normal;font-stretch:normal;font-family:'Bunday Sans';-inkscape-font-specification:'Bunday Sans';fill:#574200;fill-opacity:1"
         d="m 36.2592,282.14383 v 2.89984 c 0,1.09008 0.508,1.51341 1.291166,1.57691 l 0.01058,0.0212 c -0.635,0.35983 -1.17475,0.89958 -1.17475,1.75683 0,0.92075 0.624416,1.524 1.756833,1.524 1.502833,0 2.19075,-0.97367 2.19075,-2.46591 v -5.31284 H 39.21195 v 3.52425 c -0.05292,0.0318 -0.264584,0.13759 -0.508,0.20109 -0.751417,0.24341 -1.312334,0.0317 -1.322917,-0.762 v -2.96334 z m 2.973916,5.34459 c 0,0.96308 -0.338666,1.51341 -1.026583,1.51341 -0.423333,0 -0.751417,-0.24342 -0.751417,-0.74083 0,-0.58208 0.4445,-0.99483 0.994834,-1.30175 0.402166,-0.23283 0.740833,-0.37042 0.783166,-0.39158 z" />
      <path
         id="path8617"
         style="font-style:normal;font-variant:normal;font-weight:normal;font-stretch:normal;font-family:'Bunday Sans';-inkscape-font-specification:'Bunday Sans';fill:#574200;fill-opacity:1"
         d="m 46.01702,284.49333 c 0,-1.94733 -0.592667,-2.44475 -1.5875,-2.44475 -0.613833,0 -1.100666,0.27517 -1.513416,0.62442 h -0.03175 l -0.0635,-0.52917 h -0.98425 v 7.67292 h 1.121833 v -1.61925 c 0,-0.47625 -0.02117,-0.81492 -0.02117,-0.81492 h 0.02117 c 0.22225,0.0741 0.582083,0.16934 1.058333,0.16934 1.217084,0 2.00025,-0.60325 2.00025,-3.05859 z m -3.058583,-0.889 c 0.296333,-0.29633 0.687917,-0.60325 1.17475,-0.60325 0.47625,0 0.762,0.20109 0.762,1.651 0,1.66159 -0.359833,1.94734 -1.068917,1.94734 -0.296333,0 -0.635,-0.0529 -0.867833,-0.127 z" />
      <path
         id="path8619"
         style="font-style:normal;font-variant:normal;font-weight:normal;font-stretch:normal;font-family:'Bunday Sans';-inkscape-font-specification:'Bunday Sans';fill:#574200;fill-opacity:1"
         d="m 47.44576,286.15492 c 0,1.17475 0.4445,1.38641 1.322917,1.38641 0.486833,0 1.026583,-0.11641 1.185333,-0.1905 L 49.774093,286.483 c -0.05292,0.0106 -0.47625,0.11642 -0.73025,0.11642 -0.328083,0 -0.465666,-0.0423 -0.465666,-0.46567 v -3.15383 h 1.23825 l 0.127,-0.83609 h -1.36525 v -1.48166 l -1.037167,0.10583 -0.08467,1.37583 H 46.68376 v 0.83609 h 0.762 z" />
      <path
         id="path8621"
         style="font-style:normal;font-variant:normal;font-weight:normal;font-stretch:normal;font-family:'Bunday Sans';-inkscape-font-specification:'Bunday Sans';fill:#574200;fill-opacity:1"
         d="m 52.748001,287.58367 c 1.7145,0 2.233084,-0.85725 2.233084,-2.69875 0,-1.83092 -0.4445,-2.86809 -2.159,-2.86809 -1.7145,0 -2.2225,1.03717 -2.2225,2.86809 0,1.8415 0.433917,2.69875 2.148416,2.69875 z m 0.03175,-0.9525 c -0.772583,0 -1.047749,-0.381 -1.047749,-1.75684 0,-1.34408 0.275166,-1.905 1.058333,-1.905 0.783166,0 1.058333,0.5715 1.058333,1.905 0,1.37584 -0.28575,1.75684 -1.068917,1.75684 z" />
      <path
         id="path8623"
         style="font-style:normal;font-variant:normal;font-weight:normal;font-stretch:normal;font-family:'Bunday Sans';-inkscape-font-specification:'Bunday Sans';fill:#f4bc00;fill-opacity:1;stroke-width:0.26458332"
         d="m 55.933581,284.82142 c 0,1.80975 0.465666,2.7305 2.169583,2.7305 0.486833,0 1.026583,-0.0953 1.439333,-0.24342 l -0.211666,-0.87842 c -0.34925,0.10584 -0.709084,0.16934 -1.068917,0.16934 -0.878417,0 -1.195917,-0.40217 -1.195917,-1.778 0,-1.27 0.3175,-1.82034 1.2065,-1.82034 0.391584,0 0.73025,0.0635 1.058334,0.13759 l 0.169333,-0.87842 c -0.391583,-0.13758 -0.994833,-0.21167 -1.36525,-0.21167 -1.725083,0 -2.201333,1.05834 -2.201333,2.77284 z" />
      <path
         id="path8625"
         style="font-style:normal;font-variant:normal;font-weight:normal;font-stretch:normal;font-family:'Bunday Sans';-inkscape-font-specification:'Bunday Sans';fill:#f4bc00;fill-opacity:1;stroke-width:0.26458332"
         d="m 60.600831,282.14383 v 3.81 c 0,1.25942 0.709083,1.59809 1.407583,1.59809 0.6985,0 1.17475,-0.28575 1.598083,-0.62442 h 0.02117 l 0.0635,0.52917 h 0.994833 v -5.31284 h -1.132416 v 3.86292 c -0.28575,0.28575 -0.6985,0.59267 -1.195917,0.59267 -0.41275,0 -0.624417,-0.21167 -0.624417,-0.79375 v -3.66184 z" />
      <path
         id="path8627"
         style="font-style:normal;font-variant:normal;font-weight:normal;font-stretch:normal;font-family:'Bunday Sans';-inkscape-font-specification:'Bunday Sans';fill:#f4bc00;fill-opacity:1;stroke-width:0.26458332"
         d="m 66.178241,287.45667 h 1.121834 v -3.77825 c 0.211666,-0.28575 0.645583,-0.5715 1.164166,-0.5715 0.1905,0 0.359833,0.0317 0.529167,0.0635 l 0.15875,-1.03717 c -0.105834,-0.0423 -0.296334,-0.0635 -0.497417,-0.0635 -0.60325,0 -1.068916,0.26458 -1.386416,0.60325 h -0.04233 l -0.0635,-0.52917 h -0.98425 z" />
      <path
         id="path8629"
         style="font-style:normal;font-variant:normal;font-weight:normal;font-stretch:normal;font-family:'Bunday Sans';-inkscape-font-specification:'Bunday Sans';fill:#f4bc00;fill-opacity:1;stroke-width:0.26458332"
         d="m 70.030559,287.45667 h 1.121833 v -3.77825 c 0.211667,-0.28575 0.645584,-0.5715 1.164167,-0.5715 0.1905,0 0.359833,0.0317 0.529167,0.0635 l 0.15875,-1.03717 c -0.105834,-0.0423 -0.296334,-0.0635 -0.497417,-0.0635 -0.60325,0 -1.068917,0.26458 -1.386417,0.60325 h -0.04233 l -0.0635,-0.52917 h -0.98425 z" />
      <path
         id="path8631"
         style="font-style:normal;font-variant:normal;font-weight:normal;font-stretch:normal;font-family:'Bunday Sans';-inkscape-font-specification:'Bunday Sans';fill:#f4bc00;fill-opacity:1;stroke-width:0.26458332"
         d="m 73.554781,284.78967 c 0,1.87325 0.486834,2.76225 2.148417,2.76225 0.98425,0 1.7145,-0.254 1.905,-0.34925 l -0.1905,-0.84667 c -0.455084,0.14817 -0.963084,0.27517 -1.55575,0.27517 -0.846667,0 -1.17475,-0.35984 -1.17475,-1.64042 v -0.0847 c 0.4445,0.127 1.185333,0.20109 1.608667,0.20109 1.238249,0 1.449916,-0.42334 1.449916,-1.42875 0,-0.6985 -0.359833,-1.66159 -1.957916,-1.66159 -1.725084,0 -2.233084,0.9525 -2.233084,2.77284 z m 1.164167,-0.70909 c 0.04233,-0.8255 0.370417,-1.18533 1.04775,-1.18533 0.592667,0 0.867833,0.3175 0.867833,0.78317 0,0.35983 -0.0635,0.60325 -0.645583,0.60325 -0.391583,0 -0.899583,-0.0847 -1.27,-0.20109 z" />
      <path
         id="path8633"
         style="font-style:normal;font-variant:normal;font-weight:normal;font-stretch:normal;font-family:'Bunday Sans';-inkscape-font-specification:'Bunday Sans';fill:#f4bc00;fill-opacity:1;stroke-width:0.26458332"
         d="m 78.95227,287.45667 h 1.121833 v -3.85234 c 0.28575,-0.29633 0.6985,-0.60325 1.195917,-0.60325 0.41275,0 0.635,0.21167 0.635,0.80434 v 3.65125 h 1.121833 v -3.81 c 0,-1.25942 -0.709083,-1.59809 -1.397,-1.59809 -0.6985,0 -1.185333,0.28575 -1.5875,0.62442 h -0.04233 l -0.0635,-0.52917 h -0.98425 z" />
      <path
         id="path8635"
         style="font-style:normal;font-variant:normal;font-weight:normal;font-stretch:normal;font-family:'Bunday Sans';-inkscape-font-specification:'Bunday Sans';fill:#f4bc00;fill-opacity:1;stroke-width:0.26458332"
         d="m 84.699018,286.15492 c 0,1.17475 0.4445,1.38641 1.322916,1.38641 0.486834,0 1.026584,-0.11641 1.185334,-0.1905 L 87.027351,286.483 c -0.05292,0.0106 -0.47625,0.11642 -0.73025,0.11642 -0.328083,0 -0.465667,-0.0423 -0.465667,-0.46567 v -3.15383 h 1.23825 l 0.127,-0.83609 h -1.36525 v -1.48166 l -1.037166,0.10583 -0.08467,1.37583 h -0.772583 v 0.83609 h 0.762 z" />
    </g>
  </g>
</svg>
